<?xml version="1.0" encoding="UTF-8" standalone="no"?>
<!DOCTYPE svg PUBLIC "-//W3C//DTD SVG 1.1//EN" "http://www.w3.org/Graphics/SVG/1.1/DTD/svg11.dtd">
<svg xmlns="http://www.w3.org/2000/svg" xmlns:xl="http://www.w3.org/1999/xlink" version="1.1" viewBox="-10 1 133 133" width="133pt" height="133pt" xmlns:dc="http://purl.org/dc/elements/1.1/">
  <metadata> Produced by OmniGraffle 7.2.2 
    <dc:date>2020-01-05 12:58:24 +0000</dc:date>
  </metadata>
  <defs/>
  <g stroke="none" stroke-opacity="1" stroke-dasharray="none" fill="none" fill-opacity="1">
    <title>Canvas 1</title>
    <rect fill="white" width="830" height="775"/>
    <g>
      <title>api</title>
      <path d="M 101.52418 80.38081 L 94.09558 80.38081 L 94.09558 55.61881 L 101.52418 55.61881 C 102.89352 55.61881 104.00038 54.509474 104.00038 53.14261 C 104.00038 51.77575 102.89352 50.66641 101.52418 50.66641 L 81.714585 50.66641 C 80.34525 50.66641 79.23839 51.77575 79.23839 53.14261 C 79.23839 54.509474 80.34525 55.61881 81.714585 55.61881 L 89.14318 55.61881 L 89.14318 80.38081 L 81.714585 80.38081 C 80.34525 80.38081 79.23839 81.49014 79.23839 82.85701 C 79.23839 84.22387 80.34525 85.33321 81.714585 85.33321 L 101.52418 85.33321 C 102.89352 85.33321 104.00038 84.22387 104.00038 82.85701 C 104.00038 81.49014 102.89352 80.38081 101.52418 80.38081 Z" fill="black"/>
      <path d="M 59.42879 50.66641 L 49.52399 50.66641 C 48.15465 50.66641 47.04779 51.77575 47.04779 53.14261 L 47.04779 82.85701 C 47.04779 84.22387 48.15465 85.33321 49.52399 85.33321 C 50.89333 85.33321 52.00019 84.22387 52.00019 82.85701 L 52.00019 75.42841 L 59.42879 75.42841 C 66.25567 75.42841 71.80979 69.87429 71.80979 63.04741 C 71.80979 56.22053 66.25567 50.66641 59.42879 50.66641 Z M 59.42879 70.47601 L 52.00019 70.47601 L 52.00019 55.61881 L 59.42879 55.61881 C 63.52442 55.61881 66.85739 58.951776 66.85739 63.04741 C 66.85739 67.143044 63.52442 70.47601 59.42879 70.47601 Z" fill="black"/>
      <path d="M 27.238195 50.66641 L 17.333397 50.66641 C 13.237763 50.66641 9.904798 53.99938 9.904798 58.09501 L 9.904798 82.85701 C 9.904798 84.22387 11.01166 85.33321 12.380998 85.33321 C 13.750336 85.33321 14.857197 84.22387 14.857197 82.85701 L 14.857197 75.42841 L 29.714395 75.42841 L 29.714395 82.85701 C 29.714395 84.22387 30.821256 85.33321 32.190594 85.33321 C 33.559932 85.33321 34.666794 84.22387 34.666794 82.85701 L 34.666794 58.09501 C 34.666794 53.99938 31.33383 50.66641 27.238195 50.66641 Z M 29.714395 70.47601 L 14.857197 70.47601 L 14.857197 58.09501 C 14.857197 56.730625 15.966535 55.61881 17.333397 55.61881 L 27.238195 55.61881 C 28.605057 55.61881 29.714395 56.730625 29.714395 58.09501 Z" fill="black"/>
      <path d="M 111.42898 92.7618 C 110.05964 92.7618 108.95278 93.87114 108.95278 95.238 L 108.95278 102.6666 C 108.95278 104.03099 107.84344 105.1428 106.47658 105.1428 L 66.85739 105.1428 C 66.19872 105.1428 65.569764 105.4028 65.106715 105.86833 L 56.95259 114.02245 L 48.798464 105.86833 C 48.335415 105.4028 47.70646 105.1428 47.04779 105.1428 L 7.428599 105.1428 C 6.0617365 105.1428 4.952399 104.03099 4.952399 102.6666 L 4.952399 95.238 C 4.952399 93.87114 3.845538 92.7618 2.4761995 92.7618 C 1.1068612 92.7618 -2842171e-20 93.87114 -2842171e-20 95.238 L -2842171e-20 102.6666 C -2842171e-20 106.76224 3.3329646 110.0952 7.428599 110.0952 L 46.022645 110.0952 L 55.201916 119.27447 C 55.684775 119.75733 56.31868 120 56.95259 120 C 57.5865 120 58.220404 119.75733 58.70326 119.27447 L 67.882534 110.0952 L 106.47658 110.0952 C 110.57221 110.0952 113.90518 106.76224 113.90518 102.6666 L 113.90518 95.238 C 113.90518 93.87114 112.79832 92.7618 111.42898 92.7618 Z" fill="black"/>
      <path d="M 106.47658 25.904417 L 67.882534 25.904417 L 58.70326 16.725146 C 57.73507 15.756951 56.17011 15.756951 55.201916 16.725146 L 46.022645 25.904417 L 7.428599 25.904417 C 3.3329646 25.904417 -2842171e-20 29.237382 -2842171e-20 33.333016 L -2842171e-20 40.761615 C -2842171e-20 42.128477 1.1068612 43.237814 2.4761995 43.237814 C 3.845538 43.237814 4.952399 42.128477 4.952399 40.761615 L 4.952399 33.333016 C 4.952399 31.96863 6.0617365 30.856816 7.428599 30.856816 L 47.04779 30.856816 C 47.70646 30.856816 48.335415 30.596815 48.798464 30.13129 L 56.95259 21.977165 L 65.106715 30.13129 C 65.569764 30.596815 66.19872 30.856816 66.85739 30.856816 L 106.47658 30.856816 C 107.84344 30.856816 108.95278 31.96863 108.95278 33.333016 L 108.95278 40.761615 C 108.95278 42.128477 110.05964 43.237814 111.42898 43.237814 C 112.79832 43.237814 113.90518 42.128477 113.90518 40.761615 L 113.90518 33.333016 C 113.90518 29.237382 110.57221 25.904417 106.47658 25.904417 Z" fill="black"/>
    </g>
  </g>
</svg>
