<?xml version="1.0" encoding="UTF-8" standalone="no"?>
<!DOCTYPE svg PUBLIC "-//W3C//DTD SVG 1.1//EN" "http://www.w3.org/Graphics/SVG/1.1/DTD/svg11.dtd">
<svg xmlns="http://www.w3.org/2000/svg" xmlns:xl="http://www.w3.org/1999/xlink" version="1.1" viewBox="66 521 132 133" width="11pc" height="133pt" xmlns:dc="http://purl.org/dc/elements/1.1/">
  <metadata> Produced by OmniGraffle 7.2.2 
    <dc:date>2020-01-05 12:58:24 +0000</dc:date>
  </metadata>
  <defs/>
  <g stroke="none" stroke-opacity="1" stroke-dasharray="none" fill="none" fill-opacity="1">
    <title>Canvas 2</title>
    <rect fill="white" width="830" height="775"/>
    <g>
      <title>connectivity</title>
      <path d="M 127.74237 571.1849 L 127.74237 549.33106 C 132.85538 548.01733 136.64522 543.3686 136.64522 537.8511 C 136.64522 531.31624 131.32898 526 124.79415 526 C 118.2597 526 112.94347 531.31624 112.94347 537.8511 C 112.94347 543.3686 116.73331 548.01694 121.84592 549.3307 L 121.84592 571.1845 C 115.64483 572.1177 110.3797 575.94684 107.47589 581.24657 L 94.50764 571.1652 C 94.82487 570.2725 94.99901 569.31216 94.99901 568.3121 C 94.99901 563.5989 91.16435 559.76424 86.45113 559.76424 C 81.7379 559.76424 77.90324 563.5989 77.90324 568.3121 C 77.90324 573.02535 81.7379 576.86 86.45113 576.86 C 88.0125 576.86 89.476 576.437 90.73706 575.7031 L 105.39562 587.0986 C 105.17942 588.2665 105.0607 589.4678 105.0607 590.6974 C 105.0607 595.0765 106.4963 599.1254 108.91895 602.4026 L 92.34482 618.97675 C 91.19344 620.1281 91.19344 621.99495 92.34482 623.1459 C 92.92071 623.7214 93.67545 624.0096 94.4298 624.0096 C 95.18416 624.0096 95.9389 623.7218 96.51479 623.1459 L 113.08891 606.5718 C 115.61613 608.4402 118.60249 609.7213 121.84592 610.2095 L 121.84592 632.1121 C 118.58087 633.3157 116.24627 636.45814 116.24627 640.1356 C 116.24627 644.8488 120.08092 648.68345 124.79415 648.68345 C 129.50738 648.68345 133.34203 644.8488 133.34203 640.1356 C 133.34203 636.45775 131.00743 633.31534 127.74237 632.1121 L 127.74237 610.2099 C 137.23015 608.7826 144.5276 600.5767 144.5276 590.6978 C 144.5276 580.8181 137.22976 572.6122 127.74237 571.1849 Z M 86.45113 570.96395 C 84.98881 570.96395 83.79969 569.77444 83.79969 568.3125 C 83.79969 566.8506 84.98881 565.6611 86.45113 565.6611 C 87.91344 565.6611 89.10256 566.8506 89.10256 568.3125 C 89.10256 569.77444 87.91305 570.96395 86.45113 570.96395 Z M 118.83952 537.8511 C 118.83952 534.56754 121.51061 531.89645 124.79376 531.89645 C 128.0769 531.89645 130.74838 534.56754 130.74838 537.8511 C 130.74838 541.1346 128.0769 543.8057 124.79376 543.8057 C 121.51061 543.8057 118.83952 541.1346 118.83952 537.8511 Z M 124.79415 642.787 C 123.33183 642.787 122.14271 641.5975 122.14271 640.1356 C 122.14271 638.856 123.05352 637.78524 124.26111 637.538 C 124.43407 637.5698 124.61175 637.5887 124.79415 637.5887 C 124.97655 637.5887 125.15422 637.5698 125.32719 637.538 C 126.53478 637.78524 127.44558 638.856 127.44558 640.1356 C 127.44558 641.5975 126.25607 642.787 124.79415 642.787 Z M 124.79415 604.534 C 117.16454 604.534 110.95755 598.3266 110.95755 590.697 C 110.95755 589.35064 111.15449 588.0499 111.51456 586.8183 C 111.53383 586.7574 111.55191 586.69685 111.56685 586.6351 C 113.3063 580.9816 118.57733 576.86 124.79415 576.86 C 132.42376 576.86 138.63114 583.0674 138.63114 590.697 C 138.63114 598.327 132.42376 604.534 124.79415 604.534 Z" fill="black"/>
      <path d="M 183.14893 562.0607 C 176.6141 562.0607 171.29785 567.37694 171.29785 573.9118 C 171.29785 574.2164 171.31319 574.51715 171.33599 574.8159 L 150.01522 582.0854 C 148.47389 582.6106 147.65035 584.2864 148.17592 585.8273 C 148.59378 587.0534 149.73926 587.825 150.96612 587.825 C 151.28178 587.825 151.60254 587.7739 151.9178 587.6666 L 173.23779 580.3975 C 175.35736 583.6256 179.00726 585.76324 183.14932 585.76324 C 189.68376 585.76324 195 580.447 195 573.9122 C 194.9996 567.37734 189.68337 562.0607 183.14893 562.0607 Z M 183.14893 579.8668 C 179.8654 579.8668 177.1943 577.1957 177.1943 573.9122 C 177.1943 570.62864 179.86579 567.95755 183.14893 567.95755 C 186.43207 567.95755 189.10316 570.62864 189.10316 573.9122 C 189.10316 577.1953 186.43207 579.8668 183.14893 579.8668 Z" fill="black"/>
      <path d="M 80.85107 622.789 C 74.31624 622.789 69 628.1056 69 634.6401 C 69 641.1749 74.31624 646.49115 80.85107 646.49115 C 87.38552 646.49115 92.70175 641.1749 92.70175 634.6401 C 92.70215 628.1056 87.38552 622.789 80.85107 622.789 Z M 80.85107 640.5951 C 77.56754 640.5951 74.89645 637.924 74.89645 634.6405 C 74.89645 631.3569 77.56793 628.68584 80.85107 628.68584 C 84.13421 628.68584 86.8053 631.3569 86.8053 634.6405 C 86.8057 637.9236 84.13461 640.5951 80.85107 640.5951 Z" fill="black"/>
    </g>
  </g>
</svg>
