<?xml version="1.0" encoding="UTF-8" standalone="no"?>
<!DOCTYPE svg PUBLIC "-//W3C//DTD SVG 1.1//EN" "http://www.w3.org/Graphics/SVG/1.1/DTD/svg11.dtd">
<svg xmlns="http://www.w3.org/2000/svg" xmlns:xl="http://www.w3.org/1999/xlink" version="1.1" viewBox="-56 617 133 133" width="133pt" height="133pt" xmlns:dc="http://purl.org/dc/elements/1.1/">
  <metadata> Produced by OmniGraffle 7.2.2 
    <dc:date>2020-01-05 13:03:30 +0000</dc:date>
  </metadata>
  <defs/>
  <g stroke="none" stroke-opacity="1" stroke-dasharray="none" fill="none" fill-opacity="1">
    <title>storage</title>
    <rect fill="white" width="830" height="775"/>
    <g>
      <title>Layer 1</title>
      <path d="M 34.862872 660.8581 C 34.042868 660.0661 32.742763 660.0661 31.922494 660.8581 L 29.186323 663.5943 L 29.186323 649.6574 C 29.186323 648.4887 28.23882 647.5412 27.07018 647.5412 C 25.901542 647.5412 24.95404 648.4887 24.95404 649.6574 L 24.95404 663.5943 L 22.21787 660.8581 C 21.377232 660.046 20.037714 660.0693 19.225645 660.90995 C 18.43368 661.72995 18.43368 663.03006 19.225645 663.8503 L 25.57407 670.19875 C 26.400423 671.0248 27.73994 671.0248 28.566293 670.19875 L 34.914718 663.8503 C 35.726787 663.0097 35.70351 661.6699 34.862872 660.8581 Z" fill="black"/>
      <path d="M 1.0564542 654.5097 L -5.29197 648.16125 C -6.1183235 647.3352 -7.457841 647.3352 -8.284194 648.16125 L -14.632619 654.5097 C -15.444424 655.3503 -15.421146 656.6901 -14.580509 657.5019 C -13.760504 658.2939 -12.4604 658.2939 -11.640395 657.5019 L -8.904224 654.7657 L -8.904224 668.7026 C -8.904224 669.8713 -7.956721 670.8188 -6.788082 670.8188 C -5.619443 670.8188 -4.671941 669.8713 -4.671941 668.7026 L -4.671941 654.7657 L -1.93577 657.5019 C -1.0951327 658.3137 .24464938 658.2904 1.0564542 657.4498 C 1.84842 656.6298 1.84842 655.3297 1.0564542 654.5097 Z" fill="black"/>
      <path d="M 58.60069 651.7735 C 57.056435 651.7722 55.521175 652.0084 54.04887 652.47395 C 54.188534 651.3643 54.25916 650.2467 54.26048 649.1283 C 53.98565 632.7687 40.5008 619.7293 24.140913 620.00414 C 12.202965 620.20464 1.5518958 627.5519 -2.8753367 638.6407 C -11.437245 633.3316 -22.681892 635.96884 -27.990762 644.53075 C -29.71912 647.318 -30.663978 650.5197 -30.725875 653.79865 C -33.03088 652.4679 -35.646433 651.769 -38.30801 651.7735 C -46.48901 651.7735 -53.121 658.4055 -53.121 666.5865 C -53.121 674.7675 -46.48901 681.3995 -38.30801 681.3995 C -37.13937 681.3995 -36.19187 680.452 -36.19187 679.28335 C -36.19187 678.1147 -37.13937 677.1672 -38.30801 677.1672 C -44.15094 677.07224 -48.81042 672.2588 -48.71546 666.4159 C -48.620496 660.57295 -43.80707 655.9135 -37.964137 656.0084 C -34.40743 656.0664 -31.11789 657.9074 -29.2086 660.9086 C -28.56847 661.88655 -27.25699 662.1603 -26.279068 661.52045 C -25.433934 660.96735 -25.097467 659.8942 -25.475728 658.95754 C -26.142048 657.3503 -26.48989 655.6291 -26.49994 653.8894 C -26.41503 646.2205 -20.13882 640.06754 -12.469922 640.1345 C -9.052883 640.14795 -5.756463 641.39886 -3.1906418 643.6557 C -2.309798 644.4239 -.9729255 644.33236 -.20503068 643.4515 C .0031447337 643.2129 .15497788 642.9304 .23962354 642.6252 C 4.1116334 629.1517 18.172865 621.36826 31.646073 625.2403 C 42.343697 628.3145 49.790663 637.99954 50.01339 649.1281 C 50.004394 651.3463 49.694643 653.5532 49.092866 655.6881 C 48.77994 656.81416 49.438855 657.9807 50.564907 658.2936 C 51.17409 658.4629 51.827185 658.351 52.345375 657.98835 C 54.17584 656.6975 56.36102 656.005 58.60069 656.0055 C 64.44415 656.0055 69.1814 660.7428 69.1814 666.5862 C 69.1814 672.4297 64.44415 677.1669 58.60069 677.1669 C 57.43205 677.1669 56.48455 678.11444 56.48455 679.2831 C 56.48455 680.4517 57.43205 681.3992 58.60069 681.3992 C 66.78169 681.3992 73.41368 674.7672 73.41368 666.5862 C 73.41368 658.4055 66.78169 651.7735 58.60069 651.7735 Z" fill="black"/>
      <path d="M 46.115455 700.4448 L -25.833356 700.4448 C -29.339538 700.4448 -32.18178 703.287 -32.18178 706.7932 L -32.18178 715.25775 C -32.18178 718.7639 -29.339538 721.6062 -25.833356 721.6062 L 46.115455 721.6062 C 49.621637 721.6062 52.46388 718.7639 52.46388 715.25775 L 52.46388 706.7932 C 52.46388 703.287 49.621637 700.4448 46.115455 700.4448 Z M 48.231596 715.25775 C 48.231596 716.4264 47.284094 717.3739 46.115455 717.3739 L -25.833356 717.3739 C -27.001995 717.3739 -27.949497 716.4264 -27.949497 715.25775 L -27.949497 706.7932 C -27.949497 705.62455 -27.001995 704.67704 -25.833356 704.67704 L 46.115455 704.67704 C 47.284094 704.67704 48.231596 705.62455 48.231596 706.7932 Z" fill="black"/>
      <path d="M 40.24528 706.9244 C 37.990265 706.9384 36.16959 708.7702 36.16959 711.0252 C 36.18017 713.2958 38.025446 715.1297 40.296066 715.1263 C 42.56113 715.1123 44.385774 713.2649 44.371754 710.9998 C 44.357735 708.735 42.510343 706.9104 40.24528 706.9244 Z M 40.296066 711.1588 C 40.23258 711.1588 40.19026 711.08895 40.19026 711.0255 L 40.296066 710.8943 Z" fill="black"/>
      <path d="M 18.182387 708.9093 L -22.0243 708.9093 C -23.19294 708.9093 -24.140442 709.8568 -24.140442 711.0255 C -24.140442 712.1941 -23.19294 713.1416 -22.0243 713.1416 L 18.182387 713.1416 C 19.351026 713.1416 20.298529 712.1941 20.298529 711.0255 C 20.298529 709.8568 19.35129 708.9093 18.182387 708.9093 Z" fill="black"/>
      <path d="M 31.24956 708.9093 L 25.620624 708.9093 C 24.451985 708.9093 23.504483 709.8568 23.504483 711.0255 C 23.504483 712.1941 24.451985 713.1416 25.620624 713.1416 L 31.24956 713.1416 C 32.4182 713.1416 33.365702 712.1941 33.365702 711.0255 C 33.365702 709.8568 32.418464 708.9093 31.24956 708.9093 Z" fill="black"/>
      <path d="M 46.115455 725.8385 L -25.833356 725.8385 C -29.339538 725.8385 -32.18178 728.6807 -32.18178 732.1869 L -32.18178 740.65145 C -32.18178 744.1576 -29.339538 746.9999 -25.833356 746.9999 L 46.115455 746.9999 C 49.621637 746.9999 52.46388 744.1576 52.46388 740.65145 L 52.46388 732.1869 C 52.46388 728.6807 49.621637 725.8385 46.115455 725.8385 Z M 48.231596 740.65145 C 48.231596 741.8201 47.284094 742.7676 46.115455 742.7676 L -25.833356 742.7676 C -27.001995 742.7676 -27.949497 741.8201 -27.949497 740.65145 L -27.949497 732.1869 C -27.949497 731.0182 -27.001995 730.0707 -25.833356 730.0707 L 46.115455 730.0707 C 47.284094 730.0707 48.231596 731.0182 48.231596 732.1869 Z" fill="black"/>
      <path d="M 40.24528 732.3181 C 37.990265 732.3321 36.16959 734.1639 36.16959 736.4189 C 36.18017 738.6895 38.025446 740.5234 40.296066 740.52 C 42.56113 740.506 44.385774 738.6586 44.371754 736.3935 C 44.357735 734.1287 42.510343 732.3041 40.24528 732.3181 Z M 40.296066 736.5525 C 40.23258 736.5525 40.19026 736.48265 40.19026 736.4192 L 40.296066 736.288 Z" fill="black"/>
      <path d="M 18.182387 734.303 L -22.0243 734.303 C -23.19294 734.303 -24.140442 735.2505 -24.140442 736.4192 C -24.140442 737.5878 -23.19294 738.5353 -22.0243 738.5353 L 18.182387 738.5353 C 19.351026 738.5353 20.298529 737.5878 20.298529 736.4192 C 20.298529 735.2505 19.35129 734.303 18.182387 734.303 Z" fill="black"/>
      <path d="M 31.24956 734.303 L 25.620624 734.303 C 24.451985 734.303 23.504483 735.2505 23.504483 736.4192 C 23.504483 737.5878 24.451985 738.5353 25.620624 738.5353 L 31.24956 738.5353 C 32.4182 738.5353 33.365702 737.5878 33.365702 736.4192 C 33.365702 735.2505 32.418464 734.303 31.24956 734.303 Z" fill="black"/>
      <path d="M 46.115455 675.0511 L -25.833356 675.0511 C -29.339538 675.0511 -32.18178 677.8933 -32.18178 681.3995 L -32.18178 689.86405 C -32.18178 693.3702 -29.339538 696.2125 -25.833356 696.2125 L 46.115455 696.2125 C 49.621637 696.2125 52.46388 693.3702 52.46388 689.86405 L 52.46388 681.3995 C 52.46388 677.8933 49.621637 675.0511 46.115455 675.0511 Z M 48.231596 689.86405 C 48.231596 691.0327 47.284094 691.9802 46.115455 691.9802 L -25.833356 691.9802 C -27.001995 691.9802 -27.949497 691.0327 -27.949497 689.86405 L -27.949497 681.3995 C -27.949497 680.23085 -27.001995 679.28335 -25.833356 679.28335 L 46.115455 679.28335 C 47.284094 679.28335 48.231596 680.23085 48.231596 681.3995 Z" fill="black"/>
      <path d="M 43.707286 685.0541 C 43.2994 682.8059 41.14649 681.31405 38.898354 681.7219 C 37.83314 681.915 36.88617 682.5181 36.260584 683.40136 C 35.632354 684.288 35.38688 685.3897 35.579186 686.4592 C 35.935227 688.42904 37.649037 689.8622 39.650642 689.86405 C 39.88183 689.8638 40.11249 689.84474 40.340505 689.8069 C 41.427143 689.6276 42.39554 689.0171 43.02589 688.114 C 43.656234 687.2273 43.90197 686.124 43.707286 685.0541 Z M 39.54272 685.79895 L 39.637946 685.6318 L 39.648526 685.8963 C 39.5533 685.8963 39.54695 685.8434 39.54272 685.79895 Z" fill="black"/>
      <path d="M 17.759159 683.5156 L -22.44753 683.5156 C -23.616168 683.5156 -24.56367 684.4631 -24.56367 685.6318 C -24.56367 686.8004 -23.616168 687.7479 -22.44753 687.7479 L 17.759159 687.7479 C 18.927798 687.7479 19.8753 686.8004 19.8753 685.6318 C 19.8753 684.4631 18.928063 683.5156 17.759159 683.5156 Z" fill="black"/>
      <path d="M 29.897346 683.5156 L 24.26841 683.5156 C 23.09977 683.5156 22.152269 684.4631 22.152269 685.6318 C 22.152269 686.8004 23.09977 687.7479 24.26841 687.7479 L 29.897346 687.7479 C 31.065986 687.7479 32.013488 686.8004 32.013488 685.6318 C 32.013488 684.4631 31.06625 683.5156 29.897346 683.5156 Z" fill="black"/>
    </g>
  </g>
</svg>
